<svg viewBox="-2 -2 64 64" xmlns="http://www.w3.org/2000/svg" id="Multiple-Actions-Add--Streamline-Ultimate.svg" height="64" width="64"><desc>Multiple Actions Add Streamline Icon: https://streamlinehq.com</desc><path d="M28.125 43.125a15 15 0 1 0 30 0 15 15 0 1 0 -30 0Z" fill="none" stroke="#000000" stroke-linecap="round" stroke-linejoin="round" stroke-width="4"></path><path d="m43.125 35.625 0 15" fill="none" stroke="#000000" stroke-linecap="round" stroke-linejoin="round" stroke-width="4"></path><path d="m35.625 43.125 15 0" fill="none" stroke="#000000" stroke-linecap="round" stroke-linejoin="round" stroke-width="4"></path><path d="M26.955 26.2825A15.129999999999999 15.129999999999999 0 0 0 16.875 22.5a15 15 0 0 0 -15 13.125" fill="none" stroke="#000000" stroke-linecap="round" stroke-linejoin="round" stroke-width="4"></path><path d="M8.4375 10.3125a8.4375 8.4375 0 1 0 16.875 0 8.4375 8.4375 0 1 0 -16.875 0Z" fill="none" stroke="#000000" stroke-linecap="round" stroke-linejoin="round" stroke-width="4"></path><path d="M34.6875 8.4375a6.5625 6.5625 0 1 0 13.125 0 6.5625 6.5625 0 1 0 -13.125 0Z" fill="none" stroke="#000000" stroke-linecap="round" stroke-linejoin="round" stroke-width="4"></path><path d="M51 22.5a11.25 11.25 0 0 0 -18.2125 -1.775" fill="none" stroke="#000000" stroke-linecap="round" stroke-linejoin="round" stroke-width="4"></path></svg>