<svg xmlns="http://www.w3.org/2000/svg" fill="none" viewBox="-2 -2 64 64" id="Create-Chart--Streamline-Ultimate.svg" height="64" width="64"><desc>Create Chart Streamline Icon: https://streamlinehq.com</desc><path stroke="#000000" stroke-linecap="round" stroke-linejoin="round" stroke-miterlimit="10" d="M58.125 53.125c0 2.75 -2.25 5 -5 5H6.875c-2.75 0 -5 -2.25 -5 -5V6.875c0 -2.75 2.25 -5 5 -5h46.25c2.75 0 5 2.25 5 5v46.25Z" stroke-width="4"></path><path stroke="#000000" stroke-linecap="round" stroke-linejoin="round" stroke-miterlimit="10" d="M18.624875 46.125c0 1.5 -1 2.5 -2.5 2.5h-2.5c-1.5 0 -2.5 -1 -2.5 -2.5v-7c0 -1.5 1 -2.5 2.5 -2.5h2.5c1.5 0 2.5 1 2.5 2.5v7Z" stroke-width="4"></path><path stroke="#000000" stroke-linecap="round" stroke-linejoin="round" stroke-miterlimit="10" d="M33.625 46.125c0 1.5 -1 2.5 -2.5 2.5h-2.5c-1.5 0 -2.5 -1 -2.5 -2.5V16.625049999999998c0 -1.5 1 -2.5 2.5 -2.5h2.5c1.5 0 2.5 1 2.5 2.5V46.125Z" stroke-width="4"></path><path stroke="#000000" stroke-linecap="round" stroke-linejoin="round" stroke-miterlimit="10" d="M48.625 46.125c0 1.5 -1 2.5 -2.5 2.5h-2.5c-1.5 0 -2.5 -1 -2.5 -2.5v-17c0 -1.5 1 -2.5 2.5 -2.5h2.5c1.5 0 2.5 1 2.5 2.5v17Z" stroke-width="4"></path></svg>