<svg xmlns="http://www.w3.org/2000/svg" fill="none" viewBox="-2 -2 64 64" id="Mental-Health-2--Streamline-Ultimate.svg" height="64" width="64"><desc>Mental Health 2 Streamline Icon: https://streamlinehq.com</desc><path stroke="#000000" stroke-linecap="round" stroke-linejoin="round" d="M18.465175000000002 57.448499999999996v-13.565249999999999c-2.991875 -2.77175 -5.078399999999999 -6.3812500000000005 -5.98715 -10.357000000000001m19.790475 -24.795775c15.457749999999999 0 18.7945 12.7273 24.305 27.022274999999997 0.0945 0.246 0.1275 0.5115000000000001 0.09675 0.77325 -0.031 0.26175 -0.125 0.512 -0.27425 0.7292500000000001s-0.34875 0.39525 -0.5820000000000001 0.51825c-0.233 0.123 -0.49275 0.18724999999999997 -0.75625 0.18775h-4.114v6.49575c0 1.72275 -0.68425 3.375 -1.9025 4.593249999999999 -1.21825 1.218 -2.8702499999999995 1.9025 -4.593249999999999 1.9025h-3.24775v6.49575" stroke-width="4"></path><path stroke="#000000" stroke-linecap="round" stroke-linejoin="round" d="M32.0025 15.603575000000001c3.50075 -0.056375 6.925 1.3046250000000001 9.52525 3.7462250000000004 2.51625 2.36285 0.892 6.168200000000001 -2.31175 7.4532l-14.286674999999999 5.730499999999999c-1.9304750000000002 0.7742499999999999 -4.110725 0.28375 -5.177125 -1.1432499999999999" stroke-width="4"></path><path stroke="#000000" stroke-linecap="round" stroke-linejoin="round" d="m18.305075 2.5515749999999997 -8.103675 0v6.882350000000001H3.3190999999999997v8.103675h6.8823v6.882475l8.103675 0V17.5376H25.1875V9.433925H18.305075V2.5515749999999997Z" stroke-width="4"></path></svg>